<?xml version="1.0" encoding="UTF-8"?>
<svg xmlns="http://www.w3.org/2000/svg" xmlns:xlink="http://www.w3.org/1999/xlink" width="18pt" height="22pt" viewBox="0 0 18 22" version="1.1">
<g id="surface631">
<path style=" stroke:none;fill-rule:nonzero;fill:rgb(100%,100%,100%);fill-opacity:1;" d="M 1.6875 6.984375 L 0.84375 7.851562 L 0 6.984375 L 0.84375 6.121094 Z M 22 16.777344 C 22 17.101562 21.875 17.410156 21.648438 17.640625 C 21.425781 17.871094 21.121094 18 20.804688 18 C 20.488281 18 20.183594 17.871094 19.960938 17.640625 C 19.738281 17.410156 19.609375 17.101562 19.609375 16.777344 Z M 6.820312 13.96875 L 0.84375 7.851562 L 2.535156 6.121094 L 8.507812 12.238281 Z M 0.84375 6.121094 L 6.820312 0 L 8.507812 1.730469 L 2.535156 7.851562 Z M 1.6875 5.761719 L 13.636719 5.761719 L 13.636719 8.207031 L 1.6875 8.207031 Z M 22 14.328125 L 22 16.777344 L 19.609375 16.777344 L 19.609375 14.328125 Z M 13.636719 5.761719 C 15.855469 5.761719 17.980469 6.664062 19.550781 8.269531 C 21.117188 9.875 22 12.054688 22 14.328125 L 19.609375 14.328125 C 19.609375 12.707031 18.980469 11.148438 17.859375 10 C 16.742188 8.851562 15.222656 8.207031 13.636719 8.207031 Z M 13.636719 5.761719 "/>
</g>
</svg>
