<?xml version="1.0" encoding="UTF-8"?>
<svg xmlns="http://www.w3.org/2000/svg" xmlns:xlink="http://www.w3.org/1999/xlink" width="41pt" height="109pt" viewBox="0 0 41 109" version="1.1">
<g id="surface672">
<path style=" stroke:none;fill-rule:nonzero;fill:rgb(0%,0%,0%);fill-opacity:1;" d="M 15.476562 13.546875 L 19 19.988281 L 22.578125 13.546875 L 26.933594 13.546875 L 21.671875 22.273438 L 27.023438 31 L 22.691406 31 L 19 24.714844 L 15.339844 31 L 10.976562 31 L 16.296875 22.273438 L 11.113281 13.546875 Z M 45.988281 31 L 45.988281 13.546875 L 50.101562 13.546875 L 50.101562 31 Z M 48.058594 11.066406 C 47.40625 11.066406 46.84375 10.851562 46.375 10.421875 C 45.90625 9.980469 45.671875 9.453125 45.671875 8.839844 C 45.671875 8.21875 45.90625 7.691406 46.375 7.261719 C 46.84375 6.820312 47.40625 6.601562 48.058594 6.601562 C 48.714844 6.601562 49.277344 6.820312 49.738281 7.261719 C 50.207031 7.691406 50.441406 8.21875 50.441406 8.839844 C 50.441406 9.453125 50.207031 9.980469 49.738281 10.421875 C 49.277344 10.851562 48.714844 11.066406 48.058594 11.066406 Z M 54.332031 31 L 54.332031 13.546875 L 58.265625 13.546875 L 58.265625 16.511719 L 58.46875 16.511719 C 58.832031 15.511719 59.433594 14.730469 60.277344 14.171875 C 61.117188 13.601562 62.121094 13.316406 63.285156 13.316406 C 64.46875 13.316406 65.464844 13.605469 66.277344 14.183594 C 67.09375 14.75 67.667969 15.527344 68.003906 16.511719 L 68.183594 16.511719 C 68.570312 15.542969 69.222656 14.769531 70.140625 14.191406 C 71.0625 13.609375 72.15625 13.316406 73.421875 13.316406 C 75.03125 13.316406 76.339844 13.824219 77.355469 14.839844 C 78.371094 15.855469 78.878906 17.335938 78.878906 19.285156 L 78.878906 31 L 74.753906 31 L 74.753906 19.921875 C 74.753906 18.835938 74.464844 18.046875 73.890625 17.546875 C 73.3125 17.039062 72.609375 16.785156 71.777344 16.785156 C 70.78125 16.785156 70.007812 17.09375 69.445312 17.714844 C 68.894531 18.328125 68.617188 19.128906 68.617188 20.113281 L 68.617188 31 L 64.582031 31 L 64.582031 19.75 C 64.582031 18.847656 64.308594 18.128906 63.765625 17.589844 C 63.226562 17.054688 62.523438 16.785156 61.652344 16.785156 C 61.058594 16.785156 60.523438 16.9375 60.035156 17.238281 C 59.550781 17.535156 59.164062 17.953125 58.878906 18.5 C 58.589844 19.039062 58.445312 19.667969 58.445312 20.386719 L 58.445312 31 Z M 90.640625 37.910156 C 89.164062 37.910156 87.894531 37.707031 86.835938 37.308594 C 85.773438 36.914062 84.921875 36.382812 84.277344 35.714844 C 83.632812 35.050781 83.1875 34.3125 82.9375 33.5 L 86.640625 32.601562 C 86.808594 32.941406 87.050781 33.28125 87.371094 33.613281 C 87.6875 33.953125 88.117188 34.234375 88.652344 34.453125 C 89.199219 34.683594 89.882812 34.796875 90.710938 34.796875 C 91.875 34.796875 92.84375 34.511719 93.609375 33.941406 C 94.375 33.382812 94.753906 32.457031 94.753906 31.171875 L 94.753906 27.863281 L 94.550781 27.863281 C 94.339844 28.289062 94.027344 28.722656 93.621094 29.171875 C 93.21875 29.617188 92.683594 29.992188 92.015625 30.296875 C 91.359375 30.597656 90.527344 30.75 89.527344 30.75 C 88.1875 30.75 86.972656 30.4375 85.878906 29.808594 C 84.796875 29.171875 83.933594 28.222656 83.289062 26.964844 C 82.652344 25.699219 82.335938 24.117188 82.335938 22.214844 C 82.335938 20.300781 82.652344 18.683594 83.289062 17.363281 C 83.933594 16.039062 84.800781 15.035156 85.890625 14.351562 C 86.984375 13.664062 88.199219 13.316406 89.539062 13.316406 C 90.5625 13.316406 91.402344 13.492188 92.0625 13.839844 C 92.730469 14.183594 93.257812 14.59375 93.652344 15.078125 C 94.046875 15.558594 94.347656 16.007812 94.550781 16.433594 L 94.777344 16.433594 L 94.777344 13.546875 L 98.835938 13.546875 L 98.835938 31.285156 C 98.835938 32.777344 98.480469 34.011719 97.765625 34.988281 C 97.054688 35.964844 96.082031 36.695312 94.847656 37.183594 C 93.613281 37.667969 92.210938 37.910156 90.640625 37.910156 Z M 90.675781 27.523438 C 91.546875 27.523438 92.289062 27.3125 92.902344 26.886719 C 93.515625 26.460938 93.984375 25.851562 94.300781 25.058594 C 94.621094 24.261719 94.777344 23.308594 94.777344 22.191406 C 94.777344 21.09375 94.621094 20.132812 94.300781 19.308594 C 93.992188 18.480469 93.527344 17.839844 92.914062 17.386719 C 92.308594 16.925781 91.5625 16.691406 90.675781 16.691406 C 89.757812 16.691406 88.996094 16.933594 88.378906 17.410156 C 87.765625 17.886719 87.304688 18.542969 86.996094 19.375 C 86.683594 20.199219 86.527344 21.140625 86.527344 22.191406 C 86.527344 23.261719 86.683594 24.195312 86.996094 25 C 87.3125 25.796875 87.777344 26.417969 88.390625 26.863281 C 89.011719 27.304688 89.773438 27.523438 90.675781 27.523438 Z M 90.675781 27.523438 "/>
<path style="fill:none;stroke-width:3;stroke-linecap:butt;stroke-linejoin:miter;stroke:rgb(13.333334%,47.058824%,31.764707%);stroke-opacity:1;stroke-miterlimit:4;" d="M 36.5 22 C 36.5 31.664062 28.664062 39.5 19 39.5 C 9.335938 39.5 1.5 31.664062 1.5 22 C 1.5 12.335938 9.335938 4.5 19 4.5 C 28.664062 4.5 36.5 12.335938 36.5 22 Z M 36.5 22 "/>
</g>
</svg>
