<?xml version="1.0" encoding="UTF-8"?>
<svg xmlns="http://www.w3.org/2000/svg" xmlns:xlink="http://www.w3.org/1999/xlink" width="18pt" height="18pt" viewBox="0 0 18 18" version="1.1">
<g id="surface627">
<path style=" stroke:none;fill-rule:nonzero;fill:rgb(13.333334%,47.058824%,31.764707%);fill-opacity:1;" d="M 9 13.5 L 3.375 7.875 L 4.949219 6.242188 L 7.875 9.167969 L 7.875 0 L 10.125 0 L 10.125 9.167969 L 13.050781 6.242188 L 14.625 7.875 Z M 2.25 18 C 1.632812 18 1.101562 17.78125 0.660156 17.339844 C 0.222656 16.898438 0 16.371094 0 15.75 L 0 12.375 L 2.25 12.375 L 2.25 15.75 L 15.75 15.75 L 15.75 12.375 L 18 12.375 L 18 15.75 C 18 16.367188 17.78125 16.898438 17.339844 17.339844 C 16.898438 17.78125 16.371094 18 15.75 18 Z M 2.25 18 "/>
</g>
</svg>
