<?xml version="1.0" encoding="UTF-8"?>
<svg xmlns="http://www.w3.org/2000/svg" xmlns:xlink="http://www.w3.org/1999/xlink" width="20pt" height="20pt" viewBox="0 0 20 20" version="1.1">
<g id="surface655">
<path style=" stroke:none;fill-rule:nonzero;fill:rgb(13.333334%,47.058824%,31.764707%);fill-opacity:1;" d="M 10 15 L 3.75 8.75 L 5.5 6.9375 L 8.75 10.1875 L 8.75 0 L 11.25 0 L 11.25 10.1875 L 14.5 6.9375 L 16.25 8.75 Z M 2.5 20 C 1.8125 20 1.222656 19.753906 0.734375 19.265625 C 0.246094 18.777344 0 18.1875 0 17.5 L 0 13.75 L 2.5 13.75 L 2.5 17.5 L 17.5 17.5 L 17.5 13.75 L 20 13.75 L 20 17.5 C 20 18.1875 19.753906 18.777344 19.265625 19.265625 C 18.777344 19.757812 18.1875 20 17.5 20 Z M 2.5 20 "/>
</g>
</svg>
