<?xml version="1.0" encoding="UTF-8"?>
<svg xmlns="http://www.w3.org/2000/svg" xmlns:xlink="http://www.w3.org/1999/xlink" width="15pt" height="22pt" viewBox="0 0 15 22" version="1.1">
<g id="surface704">
<path style=" stroke:none;fill-rule:nonzero;fill:rgb(60.392159%,60.392159%,60.392159%);fill-opacity:1;" d="M 11 4.5 C 10.203125 4.5 9.441406 4.816406 8.878906 5.378906 C 8.316406 5.941406 8 6.703125 8 7.5 C 8 8.296875 8.316406 9.058594 8.878906 9.621094 C 9.441406 10.183594 10.203125 10.5 11 10.5 C 11.796875 10.5 12.558594 10.183594 13.121094 9.621094 C 13.683594 9.058594 14 8.296875 14 7.5 C 14 6.703125 13.683594 5.941406 13.121094 5.378906 C 12.558594 4.816406 11.796875 4.5 11 4.5 Z M 11 12.5 C 9.675781 12.5 8.402344 11.972656 7.464844 11.035156 C 6.527344 10.097656 6 8.824219 6 7.5 C 6 6.175781 6.527344 4.902344 7.464844 3.964844 C 8.402344 3.027344 9.675781 2.5 11 2.5 C 12.324219 2.5 13.597656 3.027344 14.535156 3.964844 C 15.472656 4.902344 16 6.175781 16 7.5 C 16 8.824219 15.472656 10.097656 14.535156 11.035156 C 13.597656 11.972656 12.324219 12.5 11 12.5 Z M 11 0 C 6 0 1.730469 3.109375 0 7.5 C 1.730469 11.890625 6 15 11 15 C 16 15 20.269531 11.890625 22 7.5 C 20.269531 3.109375 16 0 11 0 Z M 11 0 "/>
</g>
</svg>
