<?xml version="1.0" encoding="UTF-8"?>
<svg xmlns="http://www.w3.org/2000/svg" xmlns:xlink="http://www.w3.org/1999/xlink" width="79pt" height="63pt" viewBox="0 0 79 63" version="1.1">
<g id="surface675">
<path style=" stroke:none;fill-rule:nonzero;fill:rgb(13.333334%,47.058824%,31.764707%);fill-opacity:1;" d="M 39.375 0 L 7.875 0 C 5.785156 0 3.785156 0.832031 2.304688 2.3125 C 0.828125 3.796875 0 5.804688 0 7.898438 L 0 71.101562 C 0 73.195312 0.828125 75.203125 2.304688 76.6875 C 3.785156 78.167969 5.785156 79 7.875 79 L 55.125 79 C 57.214844 79 59.214844 78.167969 60.695312 76.6875 C 62.171875 75.203125 63 73.195312 63 71.101562 L 63 23.699219 Z M 23.617188 50.433594 L 19.273438 50.433594 L 19.273438 63.367188 L 15.664062 63.367188 L 15.664062 50.433594 L 11.390625 50.433594 L 11.390625 47.398438 L 23.617188 47.398438 Z M 34.347656 63.367188 L 32.910156 60.476562 C 32.320312 59.363281 31.941406 58.535156 31.496094 57.609375 L 31.445312 57.609375 C 31.117188 58.53125 30.714844 59.359375 30.214844 60.476562 L 28.898438 63.367188 L 24.78125 63.367188 L 29.394531 55.289062 L 24.949219 47.398438 L 29.082031 47.398438 L 30.476562 50.316406 C 30.953125 51.28125 31.304688 52.066406 31.679688 52.964844 L 31.730469 52.964844 C 32.109375 51.945312 32.417969 51.234375 32.820312 50.316406 L 34.160156 47.398438 L 38.269531 47.398438 L 33.785156 55.191406 L 38.5 63.367188 Z M 51.609375 50.433594 L 47.261719 50.433594 L 47.261719 63.367188 L 43.652344 63.367188 L 43.652344 50.433594 L 39.378906 50.433594 L 39.378906 47.398438 L 51.605469 47.398438 Z M 39.375 27.648438 L 35.4375 27.648438 L 35.4375 7.898438 L 55.125 27.648438 Z M 39.375 27.648438 "/>
</g>
</svg>
