<?xml version="1.0" encoding="UTF-8"?>
<svg xmlns="http://www.w3.org/2000/svg" xmlns:xlink="http://www.w3.org/1999/xlink" width="80pt" height="64pt" viewBox="0 0 80 64" version="1.1">
<g id="surface659">
<path style=" stroke:none;fill-rule:nonzero;fill:rgb(13.333334%,47.058824%,31.764707%);fill-opacity:1;" d="M 7.917969 0 C 5.816406 0 3.804688 0.835938 2.320312 2.320312 C 0.835938 3.804688 0 5.816406 0 7.917969 L 0 71.25 C 0 73.347656 0.835938 75.363281 2.320312 76.847656 C 3.804688 78.332031 5.816406 79.167969 7.917969 79.167969 L 55.417969 79.167969 C 57.515625 79.167969 59.53125 78.332031 61.015625 76.847656 C 62.5 75.363281 63.332031 73.347656 63.332031 71.25 L 63.332031 23.75 L 39.582031 0 L 27.707031 0 L 27.707031 7.917969 L 19.792969 7.917969 L 19.792969 15.832031 L 27.707031 15.832031 L 27.707031 23.75 L 19.792969 23.75 L 19.792969 31.667969 L 27.707031 31.667969 L 27.707031 63.332031 L 11.875 63.332031 L 11.875 39.582031 L 19.792969 39.582031 L 19.792969 31.667969 L 11.875 31.667969 L 11.875 23.75 L 19.792969 23.75 L 19.792969 15.832031 L 11.875 15.832031 L 11.875 7.917969 L 19.792969 7.917969 L 19.792969 0 Z M 35.625 7.917969 L 55.417969 27.707031 L 35.625 27.707031 Z M 35.625 7.917969 "/>
</g>
</svg>
