<?xml version="1.0" encoding="UTF-8"?>
<svg xmlns="http://www.w3.org/2000/svg" xmlns:xlink="http://www.w3.org/1999/xlink" width="30pt" height="40pt" viewBox="0 0 30 40" version="1.1">
<g id="surface718">
<path style=" stroke:none;fill-rule:nonzero;fill:rgb(13.333334%,47.058824%,31.764707%);fill-opacity:1;" d="M 38.085938 1.007812 C 38.796875 1.679688 39.210938 2.605469 39.238281 3.582031 C 39.265625 4.558594 38.90625 5.507812 38.234375 6.21875 L 17.335938 28.34375 C 17 28.703125 16.59375 28.988281 16.140625 29.1875 C 15.691406 29.382812 15.203125 29.488281 14.710938 29.496094 C 14.21875 29.503906 13.730469 29.410156 13.273438 29.226562 C 12.816406 29.039062 12.402344 28.765625 12.050781 28.417969 L 0.988281 17.355469 C 0.339844 16.65625 -0.015625 15.730469 0 14.777344 C 0.015625 13.820312 0.40625 12.910156 1.078125 12.234375 C 1.753906 11.558594 2.667969 11.171875 3.621094 11.152344 C 4.578125 11.136719 5.503906 11.492188 6.203125 12.144531 L 14.585938 20.519531 L 32.875 1.152344 C 33.546875 0.445312 34.472656 0.0273438 35.449219 0 C 36.425781 -0.0273438 37.375 0.335938 38.085938 1.007812 Z M 38.085938 1.007812 "/>
</g>
</svg>
