<?xml version="1.0" encoding="UTF-8"?>
<svg xmlns="http://www.w3.org/2000/svg" xmlns:xlink="http://www.w3.org/1999/xlink" width="18pt" height="18pt" viewBox="0 0 18 18" version="1.1">
<g id="surface750">
<path style=" stroke:none;fill-rule:nonzero;fill:rgb(77.254903%,77.254903%,77.254903%);fill-opacity:1;" d="M 8.101562 13.5 L 9.898438 13.5 L 9.898438 8.101562 L 8.101562 8.101562 Z M 9 6.300781 C 9.253906 6.300781 9.46875 6.214844 9.640625 6.039062 C 9.816406 5.867188 9.902344 5.65625 9.898438 5.398438 C 9.898438 5.144531 9.8125 4.933594 9.640625 4.757812 C 9.46875 4.585938 9.253906 4.5 9 4.5 C 8.746094 4.5 8.53125 4.585938 8.359375 4.757812 C 8.1875 4.933594 8.101562 5.144531 8.101562 5.398438 C 8.097656 5.65625 8.1875 5.867188 8.359375 6.042969 C 8.53125 6.214844 8.746094 6.300781 9 6.300781 Z M 9 18 C 7.753906 18 6.585938 17.761719 5.488281 17.289062 C 4.394531 16.816406 3.441406 16.175781 2.632812 15.367188 C 1.824219 14.558594 1.179688 13.605469 0.710938 12.511719 C 0.238281 11.414062 0 10.246094 0 9 C 0 7.753906 0.234375 6.585938 0.710938 5.488281 C 1.183594 4.394531 1.824219 3.441406 2.632812 2.632812 C 3.441406 1.824219 4.394531 1.183594 5.488281 0.710938 C 6.585938 0.238281 7.757812 0 9 0 C 10.242188 0 11.414062 0.238281 12.511719 0.710938 C 13.605469 1.183594 14.558594 1.824219 15.367188 2.632812 C 16.175781 3.441406 16.816406 4.394531 17.292969 5.488281 C 17.765625 6.585938 18 7.753906 18 9 C 18 10.246094 17.761719 11.414062 17.289062 12.511719 C 16.820312 13.605469 16.179688 14.558594 15.367188 15.367188 C 14.554688 16.175781 13.605469 16.816406 12.511719 17.292969 C 11.417969 17.765625 10.246094 18 9 18 Z M 9 16.199219 C 11.011719 16.199219 12.710938 15.503906 14.109375 14.109375 C 15.503906 12.710938 16.199219 11.011719 16.199219 9 C 16.199219 6.988281 15.503906 5.289062 14.109375 3.890625 C 12.710938 2.496094 11.011719 1.800781 9 1.800781 C 6.988281 1.800781 5.289062 2.496094 3.890625 3.890625 C 2.496094 5.289062 1.800781 6.988281 1.800781 9 C 1.800781 11.011719 2.496094 12.710938 3.890625 14.109375 C 5.289062 15.503906 6.988281 16.199219 9 16.199219 Z M 9 16.199219 "/>
</g>
</svg>
