<?xml version="1.0" encoding="UTF-8"?>
<svg xmlns="http://www.w3.org/2000/svg" xmlns:xlink="http://www.w3.org/1999/xlink" width="21pt" height="21pt" viewBox="0 0 21 21" version="1.1">
<g id="surface756">
<path style=" stroke:none;fill-rule:nonzero;fill:rgb(0%,0%,0%);fill-opacity:1;" d="M 17.753906 16.550781 C 17.757812 16.542969 17.765625 16.539062 17.769531 16.53125 C 19.238281 14.78125 20.125 12.527344 20.125 10.0625 C 20.125 7.597656 19.238281 5.34375 17.769531 3.59375 C 17.765625 3.585938 17.761719 3.582031 17.753906 3.574219 C 17.730469 3.546875 17.707031 3.519531 17.683594 3.492188 C 17.675781 3.480469 17.664062 3.472656 17.65625 3.460938 L 17.566406 3.355469 L 17.5625 3.351562 C 17.527344 3.316406 17.492188 3.277344 17.457031 3.238281 C 17.386719 3.160156 17.3125 3.082031 17.238281 3.011719 L 17.238281 3.007812 L 17.128906 2.898438 L 17.121094 2.894531 C 17.089844 2.859375 17.054688 2.828125 17.019531 2.796875 C 17.007812 2.785156 17 2.773438 16.984375 2.761719 C 16.960938 2.738281 16.941406 2.71875 16.917969 2.699219 C 16.910156 2.691406 16.902344 2.6875 16.894531 2.675781 C 15.101562 1.015625 12.703125 0 10.0625 0 C 7.421875 0 5.023438 1.015625 3.226562 2.675781 C 3.222656 2.683594 3.210938 2.691406 3.207031 2.699219 C 3.183594 2.71875 3.160156 2.742188 3.136719 2.765625 C 3.125 2.777344 3.117188 2.789062 3.101562 2.796875 C 3.066406 2.832031 3.035156 2.863281 3 2.894531 L 2.992188 2.902344 L 2.886719 3.011719 L 2.882812 3.011719 C 2.808594 3.085938 2.738281 3.164062 2.667969 3.238281 L 2.664062 3.242188 C 2.628906 3.28125 2.59375 3.316406 2.5625 3.355469 L 2.558594 3.359375 C 2.527344 3.390625 2.496094 3.425781 2.464844 3.464844 C 2.457031 3.476562 2.449219 3.484375 2.4375 3.496094 C 2.414062 3.523438 2.390625 3.550781 2.367188 3.578125 C 2.363281 3.585938 2.355469 3.589844 2.351562 3.597656 C 0.886719 5.34375 0 7.597656 0 10.0625 C 0 12.527344 0.886719 14.78125 2.355469 16.53125 C 2.359375 16.539062 2.363281 16.542969 2.371094 16.550781 L 2.4375 16.632812 C 2.449219 16.644531 2.457031 16.65625 2.464844 16.664062 L 2.558594 16.773438 C 2.558594 16.773438 2.5625 16.773438 2.5625 16.777344 C 2.59375 16.8125 2.628906 16.851562 2.664062 16.886719 L 2.667969 16.890625 C 2.738281 16.96875 2.808594 17.042969 2.882812 17.117188 L 2.882812 17.121094 C 2.917969 17.15625 2.953125 17.191406 2.988281 17.226562 L 2.996094 17.230469 C 3.070312 17.304688 3.148438 17.378906 3.222656 17.449219 C 5.023438 19.109375 7.421875 20.125 10.0625 20.125 C 12.703125 20.125 15.101562 19.109375 16.898438 17.449219 C 16.972656 17.378906 17.046875 17.304688 17.121094 17.230469 L 17.128906 17.226562 C 17.164062 17.1875 17.199219 17.15625 17.234375 17.121094 L 17.238281 17.117188 C 17.3125 17.042969 17.382812 16.96875 17.453125 16.890625 L 17.453125 16.886719 C 17.488281 16.851562 17.523438 16.8125 17.558594 16.777344 C 17.558594 16.773438 17.558594 16.773438 17.558594 16.773438 C 17.589844 16.738281 17.621094 16.703125 17.652344 16.664062 C 17.660156 16.65625 17.671875 16.644531 17.679688 16.632812 C 17.703125 16.609375 17.730469 16.578125 17.753906 16.550781 Z M 17.84375 13.347656 C 17.535156 14.082031 17.125 14.757812 16.628906 15.375 C 16.066406 14.890625 15.453125 14.46875 14.796875 14.117188 C 15.058594 13.066406 15.21875 11.910156 15.261719 10.691406 L 18.484375 10.691406 C 18.417969 11.609375 18.203125 12.5 17.84375 13.347656 Z M 18.484375 9.433594 L 15.261719 9.433594 C 15.21875 8.214844 15.058594 7.058594 14.796875 6.007812 C 15.457031 5.65625 16.070312 5.234375 16.628906 4.75 C 17.710938 6.085938 18.359375 7.71875 18.484375 9.433594 Z M 13.347656 2.28125 C 14.238281 2.65625 15.050781 3.179688 15.765625 3.835938 C 15.351562 4.1875 14.902344 4.5 14.429688 4.773438 C 14.078125 3.761719 13.628906 2.882812 13.101562 2.179688 C 13.183594 2.210938 13.269531 2.246094 13.347656 2.28125 Z M 11.3125 18.015625 C 11.105469 18.175781 10.898438 18.300781 10.691406 18.382812 L 10.691406 14.21875 C 11.582031 14.28125 12.460938 14.476562 13.289062 14.804688 C 13.105469 15.359375 12.886719 15.867188 12.640625 16.328125 C 12.246094 17.058594 11.789062 17.636719 11.3125 18.015625 Z M 12.640625 3.796875 C 12.886719 4.257812 13.105469 4.769531 13.289062 5.320312 C 12.460938 5.648438 11.582031 5.84375 10.691406 5.90625 L 10.691406 1.742188 C 10.898438 1.824219 11.105469 1.949219 11.3125 2.113281 C 11.789062 2.488281 12.246094 3.066406 12.640625 3.796875 Z M 10.691406 12.957031 L 10.691406 10.691406 L 14.003906 10.691406 C 13.96875 11.683594 13.84375 12.648438 13.636719 13.5625 L 13.632812 13.589844 C 12.6875 13.230469 11.699219 13.019531 10.691406 12.957031 Z M 10.691406 9.433594 L 10.691406 7.167969 C 11.71875 7.105469 12.707031 6.886719 13.632812 6.535156 L 13.636719 6.5625 C 13.84375 7.476562 13.96875 8.4375 14.003906 9.433594 Z M 9.433594 10.691406 L 9.433594 12.957031 C 8.40625 13.019531 7.417969 13.238281 6.492188 13.589844 L 6.488281 13.5625 C 6.28125 12.648438 6.15625 11.6875 6.121094 10.691406 Z M 6.121094 9.433594 C 6.15625 8.441406 6.28125 7.476562 6.488281 6.5625 L 6.492188 6.535156 C 7.417969 6.886719 8.402344 7.105469 9.433594 7.167969 L 9.433594 9.433594 Z M 9.433594 14.21875 L 9.433594 18.382812 C 9.226562 18.300781 9.019531 18.175781 8.8125 18.015625 C 8.335938 17.636719 7.875 17.054688 7.484375 16.328125 C 7.238281 15.863281 7.019531 15.355469 6.832031 14.804688 C 7.667969 14.476562 8.539062 14.28125 9.433594 14.21875 Z M 9.433594 5.90625 C 8.542969 5.84375 7.664062 5.648438 6.835938 5.320312 C 7.019531 4.765625 7.238281 4.257812 7.484375 3.796875 C 7.878906 3.066406 8.335938 2.484375 8.8125 2.109375 C 9.019531 1.949219 9.226562 1.824219 9.4375 1.742188 L 9.4375 5.90625 Z M 6.777344 2.28125 C 6.859375 2.246094 6.941406 2.210938 7.023438 2.179688 C 6.496094 2.882812 6.046875 3.761719 5.695312 4.773438 C 5.222656 4.503906 4.773438 4.1875 4.359375 3.835938 C 5.074219 3.179688 5.886719 2.65625 6.777344 2.28125 Z M 2.28125 6.777344 C 2.589844 6.042969 3 5.367188 3.496094 4.75 C 4.054688 5.234375 4.667969 5.65625 5.328125 6.007812 C 5.066406 7.058594 4.90625 8.214844 4.863281 9.433594 L 1.640625 9.433594 C 1.707031 8.515625 1.921875 7.625 2.28125 6.777344 Z M 1.640625 10.691406 L 4.863281 10.691406 C 4.90625 11.910156 5.066406 13.066406 5.328125 14.117188 C 4.671875 14.46875 4.058594 14.890625 3.496094 15.375 C 2.414062 14.039062 1.765625 12.40625 1.640625 10.691406 Z M 6.777344 17.84375 C 5.886719 17.46875 5.074219 16.945312 4.359375 16.289062 C 4.773438 15.9375 5.222656 15.625 5.695312 15.351562 C 6.046875 16.363281 6.496094 17.242188 7.023438 17.945312 C 6.941406 17.914062 6.855469 17.878906 6.777344 17.84375 Z M 13.347656 17.84375 C 13.265625 17.878906 13.183594 17.914062 13.101562 17.945312 C 13.628906 17.242188 14.078125 16.363281 14.429688 15.351562 C 14.902344 15.621094 15.351562 15.9375 15.765625 16.289062 C 15.054688 16.945312 14.238281 17.46875 13.347656 17.84375 Z M 13.347656 17.84375 "/>
</g>
</svg>
