<?xml version="1.0" encoding="UTF-8"?>
<svg xmlns="http://www.w3.org/2000/svg" xmlns:xlink="http://www.w3.org/1999/xlink" width="18pt" height="18pt" viewBox="0 0 18 18" version="1.1">
<g id="surface798">
<path style=" stroke:none;fill-rule:nonzero;fill:rgb(60.392159%,60.392159%,60.392159%);fill-opacity:1;" d="M 3.191406 9.34375 C 3.371094 9.164062 3.617188 9.0625 3.875 9.0625 C 4.132812 9.0625 4.378906 9.164062 4.558594 9.34375 C 4.648438 9.433594 4.722656 9.542969 4.769531 9.660156 C 4.820312 9.777344 4.84375 9.902344 4.84375 10.027344 C 4.84375 10.15625 4.820312 10.28125 4.769531 10.398438 C 4.722656 10.515625 4.648438 10.621094 4.558594 10.710938 L 2.503906 12.765625 C 2.324219 12.941406 2.183594 13.15625 2.085938 13.390625 C 1.988281 13.625 1.9375 13.878906 1.9375 14.132812 C 1.9375 14.386719 1.988281 14.636719 2.085938 14.871094 C 2.183594 15.105469 2.324219 15.320312 2.503906 15.5 C 2.871094 15.863281 3.363281 16.066406 3.875 16.066406 C 4.390625 16.066406 4.882812 15.863281 5.246094 15.5 L 10.039062 10.710938 C 10.128906 10.621094 10.199219 10.515625 10.25 10.398438 C 10.296875 10.28125 10.324219 10.15625 10.324219 10.027344 C 10.324219 9.902344 10.296875 9.777344 10.25 9.660156 C 10.199219 9.542969 10.128906 9.433594 10.039062 9.34375 C 9.949219 9.253906 9.878906 9.148438 9.828125 9.03125 C 9.78125 8.914062 9.753906 8.789062 9.753906 8.660156 C 9.753906 8.535156 9.78125 8.40625 9.828125 8.289062 C 9.878906 8.171875 9.949219 8.066406 10.039062 7.976562 C 10.222656 7.796875 10.46875 7.695312 10.722656 7.695312 C 10.980469 7.695312 11.226562 7.796875 11.410156 7.976562 C 11.679688 8.246094 11.894531 8.566406 12.039062 8.917969 C 12.183594 9.269531 12.261719 9.648438 12.261719 10.027344 C 12.261719 10.410156 12.183594 10.785156 12.039062 11.140625 C 11.894531 11.492188 11.679688 11.808594 11.410156 12.078125 L 6.613281 16.867188 C 5.886719 17.59375 4.902344 18 3.875 18 C 2.847656 18 1.863281 17.59375 1.132812 16.867188 C 0.773438 16.507812 0.488281 16.082031 0.292969 15.613281 C 0.101562 15.144531 0 14.640625 0 14.132812 C 0 13.625 0.101562 13.121094 0.292969 12.652344 C 0.488281 12.183594 0.773438 11.753906 1.132812 11.398438 Z M 14.808594 8.65625 C 14.628906 8.835938 14.382812 8.9375 14.125 8.9375 C 13.867188 8.9375 13.621094 8.835938 13.441406 8.65625 C 13.351562 8.566406 13.28125 8.457031 13.230469 8.339844 C 13.183594 8.222656 13.15625 8.097656 13.15625 7.972656 C 13.15625 7.84375 13.183594 7.71875 13.230469 7.601562 C 13.28125 7.484375 13.351562 7.378906 13.441406 7.289062 L 15.496094 5.234375 C 15.675781 5.054688 15.820312 4.84375 15.914062 4.609375 C 16.011719 4.375 16.0625 4.121094 16.0625 3.867188 C 16.0625 3.613281 16.011719 3.363281 15.914062 3.128906 C 15.820312 2.894531 15.675781 2.679688 15.496094 2.5 C 15.132812 2.136719 14.640625 1.933594 14.125 1.933594 C 13.613281 1.933594 13.121094 2.136719 12.753906 2.5 L 7.960938 7.289062 C 7.871094 7.378906 7.800781 7.484375 7.753906 7.601562 C 7.703125 7.71875 7.679688 7.84375 7.679688 7.972656 C 7.679688 8.097656 7.703125 8.222656 7.753906 8.339844 C 7.800781 8.457031 7.871094 8.566406 7.960938 8.65625 C 8.050781 8.746094 8.125 8.851562 8.171875 8.96875 C 8.222656 9.085938 8.246094 9.210938 8.246094 9.339844 C 8.246094 9.464844 8.222656 9.589844 8.171875 9.710938 C 8.125 9.828125 8.050781 9.933594 7.960938 10.023438 C 7.78125 10.203125 7.535156 10.304688 7.277344 10.304688 C 7.019531 10.304688 6.773438 10.203125 6.59375 10.023438 C 6.324219 9.753906 6.109375 9.433594 5.964844 9.082031 C 5.816406 8.730469 5.742188 8.351562 5.742188 7.972656 C 5.742188 7.589844 5.816406 7.214844 5.964844 6.859375 C 6.109375 6.507812 6.324219 6.1875 6.59375 5.917969 L 11.386719 1.132812 C 12.113281 0.40625 13.101562 0 14.128906 0 C 15.15625 0 16.140625 0.40625 16.867188 1.132812 C 17.226562 1.492188 17.511719 1.917969 17.707031 2.386719 C 17.902344 2.855469 18.003906 3.359375 18.003906 3.867188 C 18.003906 4.375 17.902344 4.878906 17.707031 5.347656 C 17.511719 5.816406 17.226562 6.242188 16.867188 6.601562 Z M 14.808594 8.65625 "/>
</g>
</svg>
