<?xml version="1.0" encoding="UTF-8"?>
<svg xmlns="http://www.w3.org/2000/svg" xmlns:xlink="http://www.w3.org/1999/xlink" width="27pt" height="27pt" viewBox="0 0 27 27" version="1.1">
<g id="surface753">
<path style=" stroke:none;fill-rule:nonzero;fill:rgb(0%,0%,0%);fill-opacity:1;" d="M 6.964844 13.886719 C 7.167969 13.683594 7.445312 13.570312 7.734375 13.570312 C 8.023438 13.570312 8.300781 13.683594 8.503906 13.886719 C 8.605469 13.988281 8.6875 14.109375 8.742188 14.242188 C 8.796875 14.371094 8.824219 14.515625 8.824219 14.65625 C 8.824219 14.800781 8.796875 14.941406 8.742188 15.074219 C 8.6875 15.207031 8.605469 15.324219 8.503906 15.425781 L 6.191406 17.734375 C 5.992188 17.9375 5.828125 18.175781 5.71875 18.441406 C 5.609375 18.703125 5.554688 18.988281 5.554688 19.273438 C 5.554688 19.558594 5.609375 19.84375 5.71875 20.105469 C 5.828125 20.371094 5.992188 20.609375 6.191406 20.8125 C 6.601562 21.21875 7.15625 21.449219 7.734375 21.449219 C 8.3125 21.449219 8.867188 21.21875 9.277344 20.8125 L 14.667969 15.425781 C 14.769531 15.324219 14.851562 15.207031 14.90625 15.074219 C 14.960938 14.941406 14.988281 14.800781 14.988281 14.65625 C 14.988281 14.515625 14.960938 14.371094 14.90625 14.242188 C 14.851562 14.109375 14.769531 13.988281 14.667969 13.886719 C 14.566406 13.789062 14.488281 13.667969 14.433594 13.535156 C 14.378906 13.402344 14.347656 13.261719 14.347656 13.117188 C 14.347656 12.976562 14.378906 12.835938 14.433594 12.703125 C 14.488281 12.570312 14.566406 12.449219 14.667969 12.347656 C 14.875 12.144531 15.152344 12.03125 15.441406 12.03125 C 15.726562 12.03125 16.003906 12.144531 16.210938 12.347656 C 16.511719 12.652344 16.753906 13.011719 16.917969 13.40625 C 17.082031 13.804688 17.167969 14.226562 17.167969 14.65625 C 17.167969 15.085938 17.082031 15.511719 16.917969 15.90625 C 16.753906 16.300781 16.511719 16.660156 16.210938 16.964844 L 10.816406 22.351562 C 9.996094 23.167969 8.890625 23.625 7.734375 23.625 C 6.578125 23.625 5.46875 23.167969 4.652344 22.351562 C 4.246094 21.945312 3.925781 21.46875 3.707031 20.9375 C 3.488281 20.410156 3.375 19.84375 3.375 19.273438 C 3.375 18.703125 3.488281 18.136719 3.707031 17.609375 C 3.925781 17.078125 4.246094 16.601562 4.652344 16.195312 Z M 20.035156 13.113281 C 19.832031 13.316406 19.554688 13.429688 19.265625 13.429688 C 18.976562 13.429688 18.699219 13.316406 18.496094 13.113281 C 18.394531 13.011719 18.3125 12.890625 18.257812 12.757812 C 18.203125 12.628906 18.175781 12.484375 18.175781 12.34375 C 18.175781 12.199219 18.203125 12.058594 18.257812 11.925781 C 18.3125 11.792969 18.394531 11.675781 18.496094 11.574219 L 20.808594 9.265625 C 21.007812 9.0625 21.171875 8.824219 21.28125 8.558594 C 21.390625 8.296875 21.445312 8.011719 21.445312 7.726562 C 21.445312 7.441406 21.390625 7.15625 21.28125 6.894531 C 21.171875 6.628906 21.007812 6.390625 20.808594 6.1875 C 20.398438 5.78125 19.84375 5.550781 19.265625 5.550781 C 18.6875 5.550781 18.132812 5.78125 17.722656 6.1875 L 12.332031 11.574219 C 12.230469 11.675781 12.152344 11.792969 12.097656 11.925781 C 12.042969 12.058594 12.011719 12.199219 12.011719 12.34375 C 12.011719 12.484375 12.042969 12.628906 12.097656 12.757812 C 12.152344 12.890625 12.230469 13.011719 12.332031 13.113281 C 12.433594 13.210938 12.515625 13.332031 12.570312 13.464844 C 12.625 13.597656 12.652344 13.738281 12.652344 13.882812 C 12.652344 14.023438 12.625 14.164062 12.570312 14.296875 C 12.515625 14.429688 12.433594 14.550781 12.332031 14.652344 C 12.128906 14.855469 11.851562 14.96875 11.5625 14.96875 C 11.273438 14.96875 10.996094 14.855469 10.789062 14.652344 C 10.488281 14.347656 10.246094 13.988281 10.082031 13.59375 C 9.917969 13.195312 9.835938 12.773438 9.835938 12.34375 C 9.835938 11.914062 9.917969 11.488281 10.082031 11.09375 C 10.246094 10.699219 10.488281 10.339844 10.789062 10.035156 L 16.183594 4.648438 C 17.003906 3.832031 18.113281 3.375 19.269531 3.375 C 20.421875 3.375 21.53125 3.832031 22.351562 4.648438 C 22.753906 5.054688 23.074219 5.53125 23.292969 6.0625 C 23.515625 6.589844 23.625 7.15625 23.625 7.726562 C 23.625 8.296875 23.515625 8.863281 23.292969 9.390625 C 23.074219 9.921875 22.753906 10.398438 22.351562 10.804688 Z M 20.035156 13.113281 "/>
</g>
</svg>
