<?xml version="1.0" encoding="UTF-8"?>
<svg xmlns="http://www.w3.org/2000/svg" xmlns:xlink="http://www.w3.org/1999/xlink" width="20pt" height="20pt" viewBox="0 0 20 20" version="1.1">
<g id="surface820">
<path style=" stroke:none;fill-rule:nonzero;fill:rgb(13.333334%,47.058824%,31.764707%);fill-opacity:1;" d="M 3.542969 10.382812 C 3.746094 10.183594 4.019531 10.070312 4.304688 10.070312 C 4.589844 10.070312 4.863281 10.183594 5.066406 10.382812 C 5.167969 10.484375 5.246094 10.601562 5.300781 10.730469 C 5.355469 10.863281 5.382812 11 5.382812 11.144531 C 5.382812 11.285156 5.355469 11.421875 5.300781 11.554688 C 5.246094 11.683594 5.167969 11.800781 5.066406 11.902344 L 2.785156 14.183594 C 2.582031 14.382812 2.425781 14.617188 2.316406 14.878906 C 2.207031 15.140625 2.152344 15.417969 2.152344 15.703125 C 2.152344 15.984375 2.207031 16.265625 2.316406 16.523438 C 2.425781 16.785156 2.582031 17.023438 2.785156 17.222656 C 3.1875 17.625 3.734375 17.851562 4.304688 17.851562 C 4.875 17.851562 5.421875 17.625 5.828125 17.222656 L 11.152344 11.902344 C 11.253906 11.800781 11.332031 11.683594 11.386719 11.554688 C 11.441406 11.421875 11.46875 11.285156 11.46875 11.144531 C 11.46875 11 11.441406 10.863281 11.386719 10.730469 C 11.332031 10.601562 11.253906 10.484375 11.152344 10.382812 C 11.054688 10.285156 10.972656 10.164062 10.921875 10.035156 C 10.867188 9.90625 10.839844 9.765625 10.839844 9.625 C 10.839844 9.480469 10.867188 9.34375 10.921875 9.210938 C 10.972656 9.082031 11.054688 8.964844 11.152344 8.863281 C 11.355469 8.660156 11.628906 8.546875 11.914062 8.546875 C 12.199219 8.546875 12.472656 8.660156 12.675781 8.863281 C 12.976562 9.164062 13.214844 9.519531 13.375 9.910156 C 13.535156 10.300781 13.621094 10.71875 13.621094 11.144531 C 13.621094 11.566406 13.535156 11.984375 13.375 12.375 C 13.214844 12.769531 12.976562 13.121094 12.675781 13.421875 L 7.347656 18.742188 C 6.539062 19.546875 5.445312 20 4.304688 20 C 3.164062 20 2.070312 19.546875 1.261719 18.742188 C 0.859375 18.34375 0.542969 17.867188 0.328125 17.347656 C 0.109375 16.824219 0 16.265625 0 15.703125 C 0 15.136719 0.109375 14.578125 0.328125 14.058594 C 0.542969 13.535156 0.859375 13.0625 1.261719 12.664062 Z M 16.453125 9.617188 C 16.253906 9.816406 15.980469 9.929688 15.691406 9.929688 C 15.40625 9.929688 15.132812 9.816406 14.933594 9.617188 C 14.832031 9.515625 14.753906 9.398438 14.699219 9.269531 C 14.644531 9.136719 14.617188 9 14.617188 8.855469 C 14.617188 8.714844 14.644531 8.578125 14.699219 8.445312 C 14.753906 8.316406 14.832031 8.199219 14.933594 8.097656 L 17.214844 5.816406 C 17.414062 5.617188 17.574219 5.382812 17.683594 5.121094 C 17.789062 4.859375 17.847656 4.582031 17.847656 4.296875 C 17.847656 4.015625 17.789062 3.734375 17.683594 3.476562 C 17.574219 3.214844 17.414062 2.976562 17.214844 2.777344 C 16.8125 2.375 16.265625 2.148438 15.691406 2.148438 C 15.121094 2.148438 14.574219 2.375 14.171875 2.777344 L 8.847656 8.097656 C 8.746094 8.199219 8.667969 8.316406 8.613281 8.445312 C 8.558594 8.578125 8.53125 8.714844 8.53125 8.855469 C 8.53125 9 8.558594 9.136719 8.613281 9.269531 C 8.667969 9.398438 8.746094 9.515625 8.847656 9.617188 C 8.945312 9.714844 9.027344 9.835938 9.078125 9.964844 C 9.132812 10.09375 9.160156 10.234375 9.160156 10.375 C 9.160156 10.519531 9.132812 10.65625 9.078125 10.789062 C 9.027344 10.917969 8.945312 11.035156 8.847656 11.136719 C 8.644531 11.339844 8.371094 11.453125 8.085938 11.453125 C 7.800781 11.453125 7.527344 11.339844 7.324219 11.136719 C 7.023438 10.835938 6.789062 10.480469 6.625 10.089844 C 6.464844 9.699219 6.378906 9.28125 6.378906 8.855469 C 6.378906 8.433594 6.464844 8.015625 6.625 7.625 C 6.789062 7.230469 7.023438 6.878906 7.324219 6.578125 L 12.652344 1.257812 C 13.460938 0.453125 14.554688 0 15.695312 0 C 16.835938 0 17.929688 0.453125 18.738281 1.257812 C 19.140625 1.65625 19.457031 2.132812 19.671875 2.652344 C 19.890625 3.175781 20 3.734375 20 4.296875 C 20 4.863281 19.890625 5.421875 19.671875 5.941406 C 19.457031 6.464844 19.140625 6.9375 18.738281 7.335938 Z M 16.453125 9.617188 "/>
</g>
</svg>
