<?xml version="1.0" encoding="UTF-8"?>
<svg xmlns="http://www.w3.org/2000/svg" xmlns:xlink="http://www.w3.org/1999/xlink" width="21pt" height="16pt" viewBox="0 0 21 16" version="1.1">
<g id="surface744">
<path style=" stroke:none;fill-rule:nonzero;fill:rgb(13.333334%,47.058824%,31.764707%);fill-opacity:1;" d="M 2 21 C 1.449219 21 0.980469 20.804688 0.589844 20.414062 C 0.195312 20.023438 0 19.550781 0 19 L 0 9 C 0 8.449219 0.195312 7.980469 0.589844 7.589844 C 0.980469 7.195312 1.449219 7 2 7 L 3 7 L 3 5 C 3 3.617188 3.488281 2.4375 4.464844 1.464844 C 5.4375 0.488281 6.617188 0 8 0 C 9.382812 0 10.5625 0.488281 11.539062 1.464844 C 12.515625 2.4375 13 3.617188 13 5 L 13 7 L 14 7 C 14.550781 7 15.019531 7.195312 15.414062 7.589844 C 15.804688 7.980469 16 8.449219 16 9 L 16 19 C 16 19.550781 15.804688 20.019531 15.414062 20.414062 C 15.023438 20.804688 14.550781 21 14 21 Z M 8 16 C 8.550781 16 9.019531 15.804688 9.414062 15.414062 C 9.804688 15.023438 10 14.550781 10 14 C 10 13.449219 9.804688 12.980469 9.414062 12.589844 C 9.023438 12.199219 8.550781 12 8 12 C 7.449219 12 6.976562 12.195312 6.589844 12.589844 C 6.199219 12.980469 6.003906 13.453125 6 14 C 5.996094 14.546875 6.195312 15.019531 6.589844 15.414062 C 6.980469 15.808594 7.453125 16.003906 8 16 Z M 5 7 L 11 7 L 11 5 C 11 4.167969 10.707031 3.457031 10.125 2.875 C 9.542969 2.292969 8.832031 2 8 2 C 7.167969 2 6.457031 2.292969 5.875 2.875 C 5.292969 3.457031 5 4.167969 5 5 Z M 5 7 "/>
</g>
</svg>
