<?xml version="1.0" encoding="UTF-8"?>
<svg xmlns="http://www.w3.org/2000/svg" xmlns:xlink="http://www.w3.org/1999/xlink" width="19pt" height="19pt" viewBox="0 0 19 19" version="1.1">
<g id="surface764">
<path style="fill:none;stroke-width:2;stroke-linecap:round;stroke-linejoin:round;stroke:rgb(0%,0%,0%);stroke-opacity:1;stroke-miterlimit:4;" d="M 1 9.25 C 1 10.332031 1.214844 11.40625 1.628906 12.40625 C 2.042969 13.40625 2.648438 14.316406 3.417969 15.082031 C 4.183594 15.851562 5.09375 16.457031 6.09375 16.871094 C 7.09375 17.285156 8.167969 17.5 9.25 17.5 C 10.332031 17.5 11.40625 17.285156 12.40625 16.871094 C 13.40625 16.457031 14.316406 15.851562 15.082031 15.082031 C 15.851562 14.316406 16.457031 13.40625 16.871094 12.40625 C 17.285156 11.40625 17.5 10.332031 17.5 9.25 C 17.5 7.0625 16.628906 4.964844 15.082031 3.417969 C 13.535156 1.871094 11.4375 1 9.25 1 C 7.0625 1 4.964844 1.871094 3.417969 3.417969 C 1.871094 4.964844 1 7.0625 1 9.25 Z M 1 9.25 "/>
<path style="fill:none;stroke-width:2;stroke-linecap:round;stroke-linejoin:round;stroke:rgb(0%,0%,0%);stroke-opacity:1;stroke-miterlimit:4;" d="M 9.25 4.667969 L 9.25 9.25 L 12 12 "/>
</g>
</svg>
