<?xml version="1.0" encoding="UTF-8"?>
<svg xmlns="http://www.w3.org/2000/svg" xmlns:xlink="http://www.w3.org/1999/xlink" width="21pt" height="21pt" viewBox="0 0 21 21" version="1.1">
<g id="surface786">
<path style=" stroke:none;fill-rule:nonzero;fill:rgb(94.901961%,89.411765%,100%);fill-opacity:1;" d="M 10.5 20.589844 C 16.074219 20.589844 20.589844 16.074219 20.589844 10.5 C 20.589844 4.925781 16.074219 0.410156 10.5 0.410156 C 4.925781 0.410156 0.410156 4.925781 0.410156 10.5 C 0.410156 16.074219 4.925781 20.589844 10.5 20.589844 Z M 10.5 20.589844 "/>
<path style=" stroke:none;fill-rule:nonzero;fill:rgb(58.431375%,10.196079%,81.960785%);fill-opacity:1;" d="M 10.523438 19.089844 L 10.523438 17.816406 C 14.554688 17.804688 17.816406 14.535156 17.816406 10.5 C 17.816406 6.464844 14.554688 3.195312 10.523438 3.183594 L 10.523438 1.910156 C 15.257812 1.921875 19.089844 5.761719 19.089844 10.5 C 19.089844 15.238281 15.257812 19.078125 10.523438 19.089844 Z M 10.523438 14.636719 C 12.796875 14.625 14.636719 12.777344 14.636719 10.5 C 14.636719 8.222656 12.796875 6.375 10.523438 6.363281 L 10.523438 5.09375 C 13.5 5.105469 15.910156 7.519531 15.910156 10.5 C 15.910156 13.480469 13.5 15.894531 10.523438 15.90625 Z M 10.523438 8.273438 C 11.742188 8.285156 12.726562 9.277344 12.726562 10.5 C 12.726562 11.722656 11.742188 12.714844 10.523438 12.726562 Z M 0 10.5 C 0 16.300781 4.699219 21 10.5 21 C 16.300781 21 21 16.300781 21 10.5 C 21 4.699219 16.300781 0 10.5 0 C 4.699219 0 0 4.699219 0 10.5 Z M 0 10.5 "/>
</g>
</svg>
