<?xml version="1.0" encoding="UTF-8"?>
<svg xmlns="http://www.w3.org/2000/svg" xmlns:xlink="http://www.w3.org/1999/xlink" width="20pt" height="20pt" viewBox="0 0 20 20" version="1.1">
<g id="surface783">
<path style=" stroke:none;fill-rule:evenodd;fill:rgb(100%,100%,100%);fill-opacity:1;" d="M 9.75 0 C 9.914062 0 10.074219 0.0351562 10.21875 0.105469 C 10.363281 0.175781 10.492188 0.28125 10.59375 0.40625 L 14.929688 5.824219 C 15.023438 5.933594 15.09375 6.0625 15.136719 6.199219 C 15.179688 6.339844 15.195312 6.484375 15.183594 6.628906 C 15.167969 6.773438 15.125 6.914062 15.058594 7.039062 C 14.988281 7.167969 14.894531 7.28125 14.78125 7.371094 C 14.667969 7.460938 14.539062 7.53125 14.398438 7.570312 C 14.257812 7.609375 14.113281 7.621094 13.96875 7.601562 C 13.824219 7.582031 13.6875 7.535156 13.5625 7.464844 C 13.433594 7.390625 13.324219 7.292969 13.238281 7.175781 L 10.832031 4.171875 L 10.832031 11.917969 C 10.832031 12.203125 10.71875 12.480469 10.515625 12.683594 C 10.3125 12.886719 10.039062 13 9.75 13 C 9.460938 13 9.1875 12.886719 8.984375 12.683594 C 8.78125 12.480469 8.667969 12.203125 8.667969 11.917969 L 8.667969 4.171875 L 6.261719 7.179688 C 6.175781 7.292969 6.066406 7.390625 5.9375 7.464844 C 5.8125 7.539062 5.675781 7.585938 5.53125 7.601562 C 5.386719 7.621094 5.242188 7.609375 5.101562 7.570312 C 4.960938 7.53125 4.832031 7.464844 4.71875 7.371094 C 4.605469 7.28125 4.511719 7.167969 4.441406 7.042969 C 4.375 6.914062 4.332031 6.773438 4.316406 6.628906 C 4.304688 6.484375 4.320312 6.339844 4.363281 6.199219 C 4.40625 6.0625 4.476562 5.933594 4.570312 5.824219 L 8.90625 0.40625 C 9.007812 0.28125 9.136719 0.179688 9.28125 0.109375 C 9.425781 0.0351562 9.585938 0 9.75 0 Z M 6.5 11.917969 L 6.5 10.832031 L 2.167969 10.832031 C 1.59375 10.832031 1.039062 11.0625 0.632812 11.46875 C 0.226562 11.875 0 12.425781 0 13 L 0 17.332031 C 0 17.90625 0.226562 18.460938 0.632812 18.867188 C 1.039062 19.273438 1.59375 19.5 2.167969 19.5 L 17.332031 19.5 C 17.90625 19.5 18.460938 19.273438 18.867188 18.867188 C 19.273438 18.460938 19.5 17.90625 19.5 17.332031 L 19.5 13 C 19.5 12.425781 19.273438 11.875 18.867188 11.46875 C 18.460938 11.0625 17.90625 10.832031 17.332031 10.832031 L 13 10.832031 L 13 11.917969 C 13 12.777344 12.65625 13.605469 12.046875 14.214844 C 11.4375 14.824219 10.613281 15.167969 9.75 15.167969 C 8.886719 15.167969 8.0625 14.824219 7.453125 14.214844 C 6.84375 13.605469 6.5 12.777344 6.5 11.917969 Z M 15.167969 14.082031 C 14.878906 14.082031 14.605469 14.199219 14.402344 14.402344 C 14.199219 14.605469 14.082031 14.878906 14.082031 15.167969 C 14.082031 15.453125 14.199219 15.730469 14.402344 15.933594 C 14.605469 16.136719 14.878906 16.25 15.167969 16.25 L 15.175781 16.25 C 15.464844 16.25 15.742188 16.136719 15.945312 15.933594 C 16.148438 15.730469 16.261719 15.453125 16.261719 15.167969 C 16.261719 14.878906 16.148438 14.605469 15.945312 14.402344 C 15.742188 14.199219 15.464844 14.082031 15.175781 14.082031 Z M 15.167969 14.082031 "/>
</g>
</svg>
